<svg xmlns="http://www.w3.org/2000/svg" width="480.00" height="360.00" viewBox="0 0 480.00 360.00">
<line x1="56.00" y1="24.00" x2="56.00" y2="308.00" stroke="#ddd" stroke-width="0.5"/>
<line x1="89.33" y1="24.00" x2="89.33" y2="308.00" stroke="#ddd" stroke-width="0.5"/>
<line x1="122.67" y1="24.00" x2="122.67" y2="308.00" stroke="#ddd" stroke-width="0.5"/>
<line x1="156.00" y1="24.00" x2="156.00" y2="308.00" stroke="#ddd" stroke-width="0.5"/>
<line x1="189.33" y1="24.00" x2="189.33" y2="308.00" stroke="#ddd" stroke-width="0.5"/>
<line x1="222.67" y1="24.00" x2="222.67" y2="308.00" stroke="#ddd" stroke-width="0.5"/>
<line x1="256.00" y1="24.00" x2="256.00" y2="308.00" stroke="#ddd" stroke-width="0.5"/>
<line x1="289.33" y1="24.00" x2="289.33" y2="308.00" stroke="#ddd" stroke-width="0.5"/>
<line x1="322.67" y1="24.00" x2="322.67" y2="308.00" stroke="#ddd" stroke-width="0.5"/>
<line x1="356.00" y1="24.00" x2="356.00" y2="308.00" stroke="#ddd" stroke-width="0.5"/>
<line x1="389.33" y1="24.00" x2="389.33" y2="308.00" stroke="#ddd" stroke-width="0.5"/>
<line x1="422.67" y1="24.00" x2="422.67" y2="308.00" stroke="#ddd" stroke-width="0.5"/>
<line x1="456.00" y1="24.00" x2="456.00" y2="308.00" stroke="#ddd" stroke-width="0.5"/>
<line x1="56.00" y1="308.00" x2="456.00" y2="308.00" stroke="#ddd" stroke-width="0.5"/>
<line x1="56.00" y1="276.44" x2="456.00" y2="276.44" stroke="#ddd" stroke-width="0.5"/>
<line x1="56.00" y1="244.89" x2="456.00" y2="244.89" stroke="#ddd" stroke-width="0.5"/>
<line x1="56.00" y1="213.33" x2="456.00" y2="213.33" stroke="#ddd" stroke-width="0.5"/>
<line x1="56.00" y1="181.78" x2="456.00" y2="181.78" stroke="#ddd" stroke-width="0.5"/>
<line x1="56.00" y1="150.22" x2="456.00" y2="150.22" stroke="#ddd" stroke-width="0.5"/>
<line x1="56.00" y1="118.67" x2="456.00" y2="118.67" stroke="#ddd" stroke-width="0.5"/>
<line x1="56.00" y1="87.11" x2="456.00" y2="87.11" stroke="#ddd" stroke-width="0.5"/>
<line x1="56.00" y1="55.56" x2="456.00" y2="55.56" stroke="#ddd" stroke-width="0.5"/>
<line x1="56.00" y1="24.00" x2="456.00" y2="24.00" stroke="#ddd" stroke-width="0.5"/>
<line x1="56.00" y1="308.00" x2="456.00" y2="308.00" stroke="#222" stroke-width="1.00"/>
<line x1="56.00" y1="24.00" x2="56.00" y2="308.00" stroke="#222" stroke-width="1.00"/>
<line x1="56.00" y1="308.00" x2="56.00" y2="313.00" stroke="#222" stroke-width="0.80"/>
<text x="56.00" y="325.00" font-size="8.0" font-family="sans-serif" text-anchor="middle" fill="#333">-5</text>
<line x1="96.00" y1="308.00" x2="96.00" y2="313.00" stroke="#222" stroke-width="0.80"/>
<text x="96.00" y="325.00" font-size="8.0" font-family="sans-serif" text-anchor="middle" fill="#333">-4</text>
<line x1="136.00" y1="308.00" x2="136.00" y2="313.00" stroke="#222" stroke-width="0.80"/>
<text x="136.00" y="325.00" font-size="8.0" font-family="sans-serif" text-anchor="middle" fill="#333">-3</text>
<line x1="176.00" y1="308.00" x2="176.00" y2="313.00" stroke="#222" stroke-width="0.80"/>
<text x="176.00" y="325.00" font-size="8.0" font-family="sans-serif" text-anchor="middle" fill="#333">-2</text>
<line x1="216.00" y1="308.00" x2="216.00" y2="313.00" stroke="#222" stroke-width="0.80"/>
<text x="216.00" y="325.00" font-size="8.0" font-family="sans-serif" text-anchor="middle" fill="#333">-1</text>
<line x1="256.00" y1="308.00" x2="256.00" y2="313.00" stroke="#222" stroke-width="0.80"/>
<text x="256.00" y="325.00" font-size="8.0" font-family="sans-serif" text-anchor="middle" fill="#333">0</text>
<line x1="296.00" y1="308.00" x2="296.00" y2="313.00" stroke="#222" stroke-width="0.80"/>
<text x="296.00" y="325.00" font-size="8.0" font-family="sans-serif" text-anchor="middle" fill="#333">1</text>
<line x1="336.00" y1="308.00" x2="336.00" y2="313.00" stroke="#222" stroke-width="0.80"/>
<text x="336.00" y="325.00" font-size="8.0" font-family="sans-serif" text-anchor="middle" fill="#333">2</text>
<line x1="376.00" y1="308.00" x2="376.00" y2="313.00" stroke="#222" stroke-width="0.80"/>
<text x="376.00" y="325.00" font-size="8.0" font-family="sans-serif" text-anchor="middle" fill="#333">3</text>
<line x1="416.00" y1="308.00" x2="416.00" y2="313.00" stroke="#222" stroke-width="0.80"/>
<text x="416.00" y="325.00" font-size="8.0" font-family="sans-serif" text-anchor="middle" fill="#333">4</text>
<line x1="456.00" y1="308.00" x2="456.00" y2="313.00" stroke="#222" stroke-width="0.80"/>
<text x="456.00" y="325.00" font-size="8.0" font-family="sans-serif" text-anchor="middle" fill="#333">5</text>
<line x1="56.00" y1="308.00" x2="51.00" y2="308.00" stroke="#222" stroke-width="0.80"/>
<text x="47.00" y="312.00" font-size="8.0" font-family="sans-serif" text-anchor="end" fill="#333">-2</text>
<line x1="56.00" y1="272.50" x2="51.00" y2="272.50" stroke="#222" stroke-width="0.80"/>
<text x="47.00" y="276.50" font-size="8.0" font-family="sans-serif" text-anchor="end" fill="#333">-1.5</text>
<line x1="56.00" y1="237.00" x2="51.00" y2="237.00" stroke="#222" stroke-width="0.80"/>
<text x="47.00" y="241.00" font-size="8.0" font-family="sans-serif" text-anchor="end" fill="#333">-1</text>
<line x1="56.00" y1="201.50" x2="51.00" y2="201.50" stroke="#222" stroke-width="0.80"/>
<text x="47.00" y="205.50" font-size="8.0" font-family="sans-serif" text-anchor="end" fill="#333">-0.5</text>
<line x1="56.00" y1="166.00" x2="51.00" y2="166.00" stroke="#222" stroke-width="0.80"/>
<text x="47.00" y="170.00" font-size="8.0" font-family="sans-serif" text-anchor="end" fill="#333">0</text>
<line x1="56.00" y1="130.50" x2="51.00" y2="130.50" stroke="#222" stroke-width="0.80"/>
<text x="47.00" y="134.50" font-size="8.0" font-family="sans-serif" text-anchor="end" fill="#333">0.5</text>
<line x1="56.00" y1="95.00" x2="51.00" y2="95.00" stroke="#222" stroke-width="0.80"/>
<text x="47.00" y="99.00" font-size="8.0" font-family="sans-serif" text-anchor="end" fill="#333">1</text>
<line x1="56.00" y1="59.50" x2="51.00" y2="59.50" stroke="#222" stroke-width="0.80"/>
<text x="47.00" y="63.50" font-size="8.0" font-family="sans-serif" text-anchor="end" fill="#333">1.5</text>
<line x1="56.00" y1="24.00" x2="51.00" y2="24.00" stroke="#222" stroke-width="0.80"/>
<text x="47.00" y="28.00" font-size="8.0" font-family="sans-serif" text-anchor="end" fill="#333">2</text>
<text x="240.00" y="354.00" font-size="11.0" font-family="sans-serif" text-anchor="middle" fill="#111">x</text>
<text x="12" y="166.00" font-size="11.0" font-family="sans-serif" text-anchor="middle" fill="#111" transform="rotate(-90 12 166.00)">y</text>
<path d="M 130.40,166.11 L 131.66,168.35 L 132.92,170.59 L 134.19,172.82 L 135.45,175.05 L 136.71,177.27 L 137.97,179.47 L 139.24,181.67 L 140.50,183.84 L 141.76,186.00 L 143.02,188.14 L 144.29,190.26 L 145.55,192.35 L 146.81,194.42 L 148.07,196.46 L 149.33,198.47 L 150.60,200.44 L 151.86,202.39 L 153.12,204.29 L 154.38,206.16 L 155.65,207.99 L 156.91,209.77 L 158.17,211.51 L 159.43,213.21 L 160.70,214.86 L 161.96,216.46 L 163.22,218.01 L 164.48,219.51 L 165.74,220.96 L 167.01,222.35 L 168.27,223.68 L 169.53,224.96 L 170.79,226.18 L 172.06,227.34 L 173.32,228.44 L 174.58,229.47 L 175.84,230.44 L 177.11,231.35 L 178.37,232.20 L 179.63,232.97 L 180.89,233.68 L 182.15,234.33 L 183.42,234.90 L 184.68,235.41 L 185.94,235.84 L 187.20,236.21 L 188.47,236.51 L 189.73,236.74 L 190.99,236.89 L 192.25,236.98 L 193.52,237.00 L 194.78,236.94 L 196.04,236.82 L 197.30,236.62 L 198.56,236.35 L 199.83,236.02 L 201.09,235.61 L 202.35,235.14 L 203.61,234.59 L 204.88,233.98 L 206.14,233.30 L 207.40,232.55 L 208.66,231.74 L 209.93,230.86 L 211.19,229.92 L 212.45,228.91 L 213.71,227.84 L 214.97,226.71 L 216.24,225.52 L 217.50,224.26 L 218.76,222.96 L 220.02,221.59 L 221.29,220.17 L 222.55,218.69 L 223.81,217.17 L 225.07,215.59 L 226.34,213.96 L 227.60,212.28 L 228.86,210.56 L 230.12,208.79 L 231.38,206.99 L 232.65,205.14 L 233.91,203.25 L 235.17,201.32 L 236.43,199.36 L 237.70,197.37 L 238.96,195.34 L 240.22,193.29 L 241.48,191.21 L 242.75,189.10 L 244.01,186.97 L 245.27,184.82 L 246.53,182.65 L 247.79,180.46 L 249.06,178.26 L 250.32,176.05 L 251.58,173.83 L 252.84,171.60 L 254.11,169.36 L 255.37,167.12 L 256.63,164.88 L 257.89,162.64 L 259.16,160.40 L 260.42,158.17 L 261.68,155.95 L 262.94,153.74 L 264.21,151.54 L 265.47,149.35 L 266.73,147.18 L 267.99,145.03 L 269.25,142.90 L 270.52,140.79 L 271.78,138.71 L 273.04,136.66 L 274.30,134.63 L 275.57,132.64 L 276.83,130.68 L 278.09,128.75 L 279.35,126.86 L 280.62,125.01 L 281.88,123.21 L 283.14,121.44 L 284.40,119.72 L 285.66,118.04 L 286.93,116.41 L 288.19,114.83 L 289.45,113.31 L 290.71,111.83 L 291.98,110.41 L 293.24,109.04 L 294.50,107.74 L 295.76,106.48 L 297.03,105.29 L 298.29,104.16 L 299.55,103.09 L 300.81,102.08 L 302.07,101.14 L 303.34,100.26 L 304.60,99.45 L 305.86,98.70 L 307.12,98.02 L 308.39,97.41 L 309.65,96.86 L 310.91,96.39 L 312.17,95.98 L 313.44,95.65 L 314.70,95.38 L 315.96,95.18 L 317.22,95.06 L 318.48,95.00 L 319.75,95.02 L 321.01,95.11 L 322.27,95.26 L 323.53,95.49 L 324.80,95.79 L 326.06,96.16 L 327.32,96.59 L 328.58,97.10 L 329.85,97.67 L 331.11,98.32 L 332.37,99.03 L 333.63,99.80 L 334.89,100.65 L 336.16,101.56 L 337.42,102.53 L 338.68,103.56 L 339.94,104.66 L 341.21,105.82 L 342.47,107.04 L 343.73,108.32 L 344.99,109.65 L 346.26,111.04 L 347.52,112.49 L 348.78,113.99 L 350.04,115.54 L 351.30,117.14 L 352.57,118.79 L 353.83,120.49 L 355.09,122.23 L 356.35,124.01 L 357.62,125.84 L 358.88,127.71 L 360.14,129.61 L 361.40,131.56 L 362.67,133.53 L 363.93,135.54 L 365.19,137.58 L 366.45,139.65 L 367.71,141.74 L 368.98,143.86 L 370.24,146.00 L 371.50,148.16 L 372.76,150.33 L 374.03,152.53 L 375.29,154.73 L 376.55,156.95 L 377.81,159.18 L 379.08,161.41 L 380.34,163.65 L 381.60,165.89" fill="none" stroke="#1a5fb4" stroke-width="2.00"/>
<path d="M 56.00,-1538.00 L 58.01,-1502.50 L 60.02,-1467.36 L 62.03,-1432.58 L 64.04,-1398.16 L 66.05,-1364.09 L 68.06,-1330.38 L 70.07,-1297.04 L 72.08,-1264.05 L 74.09,-1231.42 L 76.10,-1199.14 L 78.11,-1167.23 L 80.12,-1135.68 L 82.13,-1104.48 L 84.14,-1073.64 L 86.15,-1043.16 L 88.16,-1013.04 L 90.17,-983.28 L 92.18,-953.88 L 94.19,-924.83 L 96.20,-896.15 L 98.21,-867.82 L 100.22,-839.85 L 102.23,-812.24 L 104.24,-784.99 L 106.25,-758.10 L 108.26,-731.56 L 110.27,-705.38 L 112.28,-679.57 L 114.29,-654.11 L 116.30,-629.01 L 118.31,-604.27 L 120.32,-579.88 L 122.33,-555.86 L 124.34,-532.19 L 126.35,-508.88 L 128.36,-485.94 L 130.37,-463.35 L 132.38,-441.11 L 134.39,-419.24 L 136.40,-397.73 L 138.41,-376.57 L 140.42,-355.77 L 142.43,-335.33 L 144.44,-315.25 L 146.45,-295.53 L 148.46,-276.17 L 150.47,-257.16 L 152.48,-238.52 L 154.49,-220.23 L 156.50,-202.30 L 158.51,-184.73 L 160.52,-167.52 L 162.53,-150.67 L 164.54,-134.17 L 166.55,-118.04 L 168.56,-102.26 L 170.57,-86.84 L 172.58,-71.78 L 174.59,-57.08 L 176.60,-42.73 L 178.61,-28.75 L 180.62,-15.12 L 182.63,-1.86 L 184.64,11.05 L 186.65,23.60 L 188.66,35.79 L 190.67,47.63 L 192.68,59.10 L 194.69,70.22 L 196.70,80.97 L 198.71,91.37 L 200.72,101.41 L 202.73,111.09 L 204.74,120.42 L 206.75,129.38 L 208.76,137.99 L 210.77,146.24 L 212.78,154.12 L 214.79,161.65 L 216.80,168.83 L 218.81,175.64 L 220.82,182.09 L 222.83,188.19 L 224.84,193.93 L 226.85,199.30 L 228.86,204.32 L 230.87,208.99 L 232.88,213.29 L 234.89,217.23 L 236.90,220.82 L 238.91,224.05 L 240.92,226.92 L 242.93,229.43 L 244.94,231.58 L 246.95,233.37 L 248.96,234.80 L 250.97,235.88 L 252.98,236.60 L 254.99,236.96 L 257.01,236.96 L 259.02,236.60 L 261.03,235.88 L 263.04,234.80 L 265.05,233.37 L 267.06,231.58 L 269.07,229.43 L 271.08,226.92 L 273.09,224.05 L 275.10,220.82 L 277.11,217.23 L 279.12,213.29 L 281.13,208.99 L 283.14,204.32 L 285.15,199.30 L 287.16,193.93 L 289.17,188.19 L 291.18,182.09 L 293.19,175.64 L 295.20,168.83 L 297.21,161.65 L 299.22,154.12 L 301.23,146.24 L 303.24,137.99 L 305.25,129.38 L 307.26,120.42 L 309.27,111.09 L 311.28,101.41 L 313.29,91.37 L 315.30,80.97 L 317.31,70.22 L 319.32,59.10 L 321.33,47.63 L 323.34,35.79 L 325.35,23.60 L 327.36,11.05 L 329.37,-1.86 L 331.38,-15.12 L 333.39,-28.75 L 335.40,-42.73 L 337.41,-57.08 L 339.42,-71.78 L 341.43,-86.84 L 343.44,-102.26 L 345.45,-118.04 L 347.46,-134.17 L 349.47,-150.67 L 351.48,-167.52 L 353.49,-184.73 L 355.50,-202.30 L 357.51,-220.23 L 359.52,-238.52 L 361.53,-257.16 L 363.54,-276.17 L 365.55,-295.53 L 367.56,-315.25 L 369.57,-335.33 L 371.58,-355.77 L 373.59,-376.57 L 375.60,-397.73 L 377.61,-419.24 L 379.62,-441.11 L 381.63,-463.35 L 383.64,-485.94 L 385.65,-508.88 L 387.66,-532.19 L 389.67,-555.86 L 391.68,-579.88 L 393.69,-604.27 L 395.70,-629.01 L 397.71,-654.11 L 399.72,-679.57 L 401.73,-705.38 L 403.74,-731.56 L 405.75,-758.10 L 407.76,-784.99 L 409.77,-812.24 L 411.78,-839.85 L 413.79,-867.82 L 415.80,-896.15 L 417.81,-924.83 L 419.82,-953.88 L 421.83,-983.28 L 423.84,-1013.04 L 425.85,-1043.16 L 427.86,-1073.64 L 429.87,-1104.48 L 431.88,-1135.68 L 433.89,-1167.23 L 435.90,-1199.14 L 437.91,-1231.42 L 439.92,-1264.05 L 441.93,-1297.04 L 443.94,-1330.38 L 445.95,-1364.09 L 447.96,-1398.16 L 449.97,-1432.58 L 451.98,-1467.36 L 453.99,-1502.50 L 456.00,-1538.00" fill="none" stroke="#c01c28" stroke-width="2.00" stroke-dasharray="4,3"/>
<circle cx="318.80" cy="95.00" r="4" fill="#c00"/>
<line x1="318.80" y1="95.00" x2="318.80" y2="308.00" stroke="#888" stroke-dasharray="4,3" stroke-width="1"/>
<line x1="318.80" y1="95.00" x2="56.00" y2="95.00" stroke="#888" stroke-dasharray="4,3" stroke-width="1"/>
<text x="326.80" y="87.00" font-size="9.9" font-family="sans-serif" fill="#111">P</text>
</svg>